<?xml version="1.0" standalone="no"?>
<!DOCTYPE svg PUBLIC "-//W3C//DTD SVG 20010904//EN"
 "http://www.w3.org/TR/2001/REC-SVG-20010904/DTD/svg10.dtd">
<svg version="1.0" xmlns="http://www.w3.org/2000/svg"
 width="1024.000000pt" height="1024.000000pt" viewBox="0 0 1024.000000 1024.000000"
 preserveAspectRatio="xMidYMid meet">
<metadata>
Created by potrace 1.14, written by Peter Selinger 2001-2017
</metadata>
<g transform="translate(0.000000,1024.000000) scale(0.100000,-0.100000)"
fill="#000000" stroke="none">
<path d="M0 5120 l0 -5120 5120 0 5120 0 0 5120 0 5120 -5120 0 -5120 0 0
-5120z m5710 1616 c300 -58 470 -174 618 -423 59 -98 108 -218 124 -302 7 -39
9 -339 5 -982 l-6 -925 -26 -70 c-122 -322 -287 -485 -545 -535 -69 -13 -2468
-12 -2680 1 -382 24 -514 127 -576 445 -13 65 -17 218 -24 835 -5 415 -13 841
-20 945 -17 291 -16 595 3 683 49 223 166 314 440 342 45 4 647 7 1337 6 1171
-1 1261 -3 1350 -20z m1905 -359 c46 -111 59 -451 58 -1504 l-1 -912 -29 -53
c-33 -63 -116 -152 -135 -146 -10 4 -14 83 -19 394 -9 542 -10 2062 -2 2161 6
90 5 89 81 92 28 1 35 -4 47 -32z m-240 -223 c7 -156 -3 -2284 -10 -2284 -2 0
-32 30 -67 67 -35 37 -147 155 -250 262 l-188 194 -2 481 c-2 265 -3 599 -2
744 l0 262 40 41 c105 109 445 407 465 409 4 0 10 -79 14 -176z"/>
</g>
</svg>
